<svg xmlns="http://www.w3.org/2000/svg" viewBox="0 0 512 512" width="512" height="512">
  <rect width="512" height="512" rx="100" fill="#123C2A"/>
  <rect x="64" y="64" width="384" height="160" rx="20" fill="#BBC9B1" stroke="#9DAE93" stroke-width="8"/>
  <text x="88" y="112" font-family="monospace" font-size="28" font-weight="bold" fill="#14231A">fx-991ES PLUS</text>
  <text x="424" y="112" font-family="monospace" font-size="24" font-weight="bold" fill="#14231A" text-anchor="end">D Math</text>
  <text x="424" y="188" font-family="monospace" font-size="44" font-weight="bold" fill="#14231A" text-anchor="end">x = 3.14159</text>
  <!-- Mini Keys Grid -->
  <g fill="#2A3B33">
    <rect x="70" y="260" width="70" height="44" rx="10" fill="#D4A017"/>
    <rect x="160" y="260" width="70" height="44" rx="10" fill="#B22222"/>
    <rect x="250" y="260" width="100" height="44" rx="10" fill="#1A2D23"/>
    <rect x="372" y="260" width="70" height="44" rx="10" fill="#D97706"/>
    
    <rect x="70" y="324" width="70" height="44" rx="10"/>
    <rect x="160" y="324" width="70" height="44" rx="10"/>
    <rect x="250" y="324" width="70" height="44" rx="10"/>
    <rect x="342" y="324" width="100" height="44" rx="10" fill="#1D4A37"/>
    
    <rect x="70" y="388" width="70" height="44" rx="10"/>
    <rect x="160" y="388" width="70" height="44" rx="10"/>
    <rect x="250" y="388" width="70" height="44" rx="10"/>
    <rect x="342" y="388" width="100" height="44" rx="10" fill="#58D68D"/>
  </g>
</svg>
